<svg width="26" height="24" viewBox="0 0 26 24" fill="none" xmlns="http://www.w3.org/2000/svg">
<path fill-rule="evenodd" clip-rule="evenodd" d="M1.22208 23.1038H1.1424C1.1424 23.0653 1.12244 23.0072 1.12244 22.9876C1.12244 22.9684 1.12244 22.9298 1.06257 22.9298H0.942825V23.1038H0.882954V22.6974H1.06257C1.1424 22.6974 1.20212 22.7169 1.20212 22.7941C1.20212 22.8522 1.18217 22.8717 1.16235 22.8908C1.18231 22.9103 1.20212 22.9297 1.20212 22.9684V23.0457C1.20212 23.0653 1.20212 23.0653 1.22208 23.0653V23.1038ZM1.1424 22.8136C1.1424 22.7555 1.10248 22.7555 1.08253 22.7555H0.942825V22.8717H1.06257C1.10248 22.8717 1.1424 22.8522 1.1424 22.8136V22.8136ZM1.48153 22.891C1.48153 22.6588 1.2821 22.465 1.02265 22.465C0.783312 22.465 0.58374 22.6588 0.58374 22.891C0.58374 23.1426 0.783312 23.3364 1.02265 23.3364C1.28195 23.3362 1.48153 23.1426 1.48153 22.891ZM1.42165 22.891C1.42165 23.104 1.24218 23.2588 1.02265 23.2588C0.803125 23.2588 0.643612 23.1038 0.643612 22.891C0.643612 22.6974 0.80327 22.5231 1.02265 22.5231C1.24204 22.5231 1.42165 22.6974 1.42165 22.891ZM26 15.0697C26 15.6506 25.6209 15.9213 24.9425 15.9213H23.646V15.3404H24.9425C25.0623 15.3404 25.1621 15.3212 25.2021 15.2826C25.2419 15.2437 25.2818 15.1856 25.2818 15.1083C25.2818 15.0307 25.242 14.9534 25.2021 14.9148C25.1621 14.8759 25.0824 14.8567 24.9626 14.8567C24.3444 14.8372 23.5662 14.8759 23.5662 14.0242C23.5662 13.6368 23.8255 13.2109 24.5237 13.2109H25.8603V13.7918H24.6234C24.5039 13.7918 24.4239 13.7918 24.3641 13.8304C24.3042 13.8885 24.2644 13.9466 24.2644 14.0434C24.2644 14.1402 24.3243 14.1983 24.404 14.2372C24.4839 14.2564 24.5638 14.2758 24.6636 14.2758H25.0225C25.4015 14.2758 25.641 14.3531 25.8007 14.4888C25.9201 14.6243 26 14.7987 26 15.0697V15.0697ZM23.187 14.4888C23.0274 14.3531 22.7879 14.2758 22.4088 14.2758H22.0499C21.9503 14.2758 21.8703 14.2563 21.7906 14.2372C21.7106 14.1983 21.651 14.1402 21.651 14.0434C21.651 13.9466 21.6709 13.8885 21.7507 13.8304C21.8106 13.7918 21.8902 13.7918 22.01 13.7918H23.2469V13.2109H21.9103C21.192 13.2109 20.9525 13.6368 20.9525 14.0242C20.9525 14.8758 21.7307 14.8372 22.3493 14.8567C22.4687 14.8567 22.5487 14.8759 22.5884 14.9148C22.6282 14.9534 22.6684 15.0307 22.6684 15.1083C22.6684 15.1856 22.6284 15.2437 22.5884 15.2826C22.5286 15.3212 22.4489 15.3404 22.3291 15.3404H21.0324V15.9213H22.3291C23.0073 15.9213 23.3864 15.6504 23.3864 15.0697C23.3864 14.7987 23.3068 14.6243 23.187 14.4888V14.4888ZM20.6334 15.3601H19.0576V14.8179H20.5936V14.2761H19.0576V13.7725H20.6334V13.2112H18.3992V15.9214H20.6334V15.3601ZM17.6809 13.3468C17.4613 13.2306 17.202 13.2111 16.8629 13.2111H15.3269V15.9213H16.005V14.934H16.7233C16.9625 14.934 17.1024 14.9535 17.2022 15.0502C17.3219 15.1856 17.3219 15.418 17.3219 15.5923V15.9213H17.9801V15.3985C17.9801 15.1469 17.9603 15.0307 17.8804 14.8953C17.8206 14.8177 17.7011 14.721 17.5414 14.6629C17.7208 14.605 18.0203 14.3726 18.0203 13.9466C18.0201 13.637 17.9004 13.4627 17.6809 13.3468V13.3468ZM13.8904 13.2111H11.7557L10.8979 14.1016L10.0799 13.2111H7.38669V15.9213H10.0401L10.898 15.0307L11.716 15.9213H13.0127V15.0116H13.8507C14.4291 15.0116 15.0079 14.8567 15.0079 14.1016C15.0077 13.366 14.4092 13.2111 13.8904 13.2111ZM17.1422 14.334C17.0425 14.3726 16.9427 14.3726 16.823 14.3726L16.005 14.3921V13.7724H16.823C16.9427 13.7724 17.0625 13.7724 17.1422 13.8305C17.2221 13.8694 17.2817 13.9467 17.2817 14.0629C17.2817 14.1791 17.2221 14.2759 17.1422 14.334V14.334ZM13.8904 14.4695H13.0126V13.7724H13.8904C14.1299 13.7724 14.2894 13.8694 14.2894 14.1016C14.2894 14.334 14.1298 14.4695 13.8904 14.4695ZM11.3168 14.5662L12.3542 13.5016V15.6892L11.3168 14.5662ZM9.70086 15.3601H8.04499V14.8179H9.52125V14.2761H8.04499V13.7725H9.72082L10.4589 14.5663L9.70086 15.3601V15.3601ZM24.1445 11.2557H23.187L21.9301 9.22289V11.2557H20.5738L20.3142 10.6555H18.9178L18.6585 11.2557H17.8803C17.5611 11.2557 17.1422 11.1782 16.903 10.9458C16.6834 10.7136 16.5637 10.4038 16.5637 9.91981C16.5637 9.51325 16.6236 9.14542 16.9226 8.85506C17.1221 8.64203 17.4813 8.54533 17.94 8.54533H18.5783V9.1262H17.94C17.7008 9.1262 17.561 9.16493 17.4214 9.28113C17.3017 9.39733 17.2418 9.61023 17.2418 9.90059C17.2418 10.1909 17.3017 10.404 17.4214 10.5396C17.5211 10.6362 17.7008 10.675 17.8801 10.675H18.1795L19.137 8.54547H20.1346L21.2517 11.1009V8.54533H22.2892L23.4663 10.4232V8.54533H24.1444V11.2557H24.1445V11.2557ZM16.2246 8.54533H15.5464V11.2557H16.2246V8.54533V8.54533ZM14.808 8.66153C14.5885 8.54533 14.3493 8.54533 14.0102 8.54533H12.4739V11.2557H13.1322V10.2683H13.8504C14.0899 10.2683 14.2495 10.2876 14.3492 10.3845C14.4689 10.52 14.4488 10.7524 14.4488 10.9072V11.2557H15.1269V10.7136C15.1269 10.4813 15.1071 10.3651 15.0075 10.2295C14.9476 10.1521 14.8278 10.0552 14.6883 9.99728C14.8676 9.91981 15.1671 9.70692 15.1671 9.28099C15.1673 8.97126 15.0274 8.79696 14.808 8.66153ZM11.9951 10.6943H10.439V10.1522H11.9751V9.59086H10.439V9.10683H11.9951V8.54547H9.76073V11.2558H11.9951V10.6943ZM9.26195 8.54533H8.16473L7.34678 10.3845L6.46895 8.54533H5.39169V11.1008L4.25457 8.54533H3.25714L2.06014 11.2557H2.77831L3.03761 10.6555H4.43404L4.69334 11.2557H6.04999V9.1262L7.02746 11.2557H7.60593L8.58355 9.1262V11.2557H9.2618V8.54533H9.26195ZM20.075 10.0747L19.616 9.01L19.1573 10.0747H20.075ZM14.2894 9.64896C14.1898 9.70706 14.09 9.70706 13.9503 9.70706H13.1322V9.10697H13.9502C14.0699 9.10697 14.2093 9.10697 14.2893 9.1457C14.369 9.2038 14.409 9.28127 14.409 9.39733C14.409 9.51339 14.3691 9.61009 14.2894 9.64896V9.64896ZM3.27695 10.0747L3.73582 9.01L4.19469 10.0747H3.27695V10.0747ZM25.8405 0.0463867H2.04004V9.80375L2.85799 8.00334H4.59355L4.83304 8.44864V8.00334H6.86795L7.32682 8.97126L7.76573 8.00334H14.2495C14.5486 8.00334 14.8079 8.06144 15.0076 8.21624V8.00334H16.7831V8.21624C17.0821 8.0613 17.4612 8.00334 17.9002 8.00334H20.4737L20.7132 8.44864V8.00334H22.6084L22.8878 8.44864V8.00334H24.743V11.7978H22.8678L22.5089 11.2171V11.7978H20.1746L19.9153 11.1784H19.3366L19.0773 11.7978H17.8605C17.3816 11.7978 17.0224 11.6816 16.7832 11.5656V11.7978H13.8904V10.9266C13.8904 10.8104 13.8705 10.791 13.7906 10.791H13.691V11.7977H8.10486V11.3137L7.90544 11.7977H6.72839L6.52897 11.333V11.7977H4.27452L4.03518 11.1782H3.45657L3.19727 11.7977H2.04004V23.2394H25.8405V16.2891C25.5812 16.4053 25.2219 16.4634 24.8628 16.4634H23.1271V16.231C22.9277 16.3861 22.5685 16.4634 22.2295 16.4634H16.7631V15.5923C16.7631 15.4761 16.7433 15.4761 16.6434 15.4761H16.5437V16.4634H14.7482V15.4374C14.4491 15.5728 14.1098 15.5728 13.8106 15.5728H13.611V16.4634H11.4166L10.898 15.8825L10.3195 16.4634H6.78812V12.6691H10.3791L10.8979 13.2496L11.4565 12.6691H13.8705C14.1496 12.6691 14.6086 12.7077 14.808 12.9012V12.6691H16.9625C17.1821 12.6691 17.6012 12.7077 17.8803 12.9012V12.6691H21.1322V12.9013C21.3118 12.7464 21.651 12.6692 21.9501 12.6692H23.7655V12.9013C23.9652 12.7659 24.2443 12.6692 24.6035 12.6692H25.8405V0.0463867V0.0463867Z" fill="white"/>
</svg>
