<svg width="47" height="24" viewBox="0 0 47 24" fill="none" xmlns="http://www.w3.org/2000/svg">
<path d="M1.72092 18.7285C1.51195 18.3909 1.23334 17.8515 1.06125 17.4521C0.0574178 15.1132 0.0123476 12.6921 0.856389 10.3697C1.78647 7.82088 3.56469 5.87323 5.86327 4.87676C8.75186 3.62911 11.9436 3.87205 14.7134 5.52323C16.4711 6.53617 17.7167 8.10088 18.6632 10.3162C18.782 10.6003 18.8885 10.9009 18.9951 11.1603L1.72092 18.7285ZM7.4899 8.63617C5.43716 9.52146 4.38006 11.4568 4.60131 13.7215L13.2876 9.96205C11.792 8.1997 9.84993 7.61499 7.4899 8.63617V8.63617ZM14.3692 16.8138C14.3651 16.8138 14.3651 16.8179 14.3651 16.8179L14.1849 16.6944C13.6645 17.5385 12.8573 18.2262 11.8371 18.6709C9.895 19.5191 8.09629 19.3009 6.80155 18.1603L6.68273 18.3415C6.68273 18.3415 6.68273 18.3373 6.67863 18.3373L4.47429 21.6521C5.02333 22.035 5.60924 22.3562 6.22383 22.6156C8.65762 23.6326 11.1488 23.5832 13.603 22.5126C15.3772 21.7385 16.7703 20.5609 17.7208 19.0662L14.3692 16.8138ZM25.0304 0.00146484V18.4238L27.8821 19.585L26.2637 23.3815L23.1169 22.0638C22.4122 21.755 21.9287 21.2856 21.5682 20.7544C21.2199 20.215 20.9618 19.4697 20.9618 18.4732V0.00146484H25.0304ZM32.4137 13.7338C32.4137 12.165 33.1061 10.7568 34.196 9.80146L31.2705 6.52382C29.2875 8.28617 28.0378 10.8597 28.0378 13.7256C28.0337 16.5956 29.2834 19.1732 31.2624 20.9356L34.1837 17.6579C33.0979 16.6985 32.4137 15.2985 32.4137 13.7338V13.7338ZM37.6091 18.9591C37.0354 18.9591 36.4782 18.8603 35.9619 18.6873L34.5648 22.8585C35.5194 23.1797 36.5397 23.3568 37.605 23.3568C42.2349 23.3609 46.0986 20.0585 46.9959 15.6732L42.702 14.7921C42.2144 17.1762 40.1207 18.9632 37.6091 18.9591V18.9591ZM37.6213 4.11088C36.5601 4.11088 35.5399 4.28382 34.5853 4.60088L35.9701 8.77617C36.4905 8.60323 37.0436 8.50852 37.6172 8.50852C40.133 8.51264 42.2308 10.3079 42.7061 12.6962L47 11.8232C46.1191 7.4297 42.2554 4.11499 37.6213 4.11088V4.11088Z" fill="white"/>
</svg>
